<?xml version="1.0" encoding="UTF-8"?>
<svg id="Layer_2" data-name="Layer 2" xmlns="http://www.w3.org/2000/svg" viewBox="0 0 667.5 395.69">
  <defs>
    <style>
      .cls-1 {
        fill: #fff;
      }
    </style>
  </defs>
  <g id="Layer_2-2" data-name="Layer 2">
    <g id="Layer_1-2" data-name="Layer 1-2">
      <g>
        <path class="cls-1" d="m485.51,238.31c.21,3.34.43,6.68.64,10.02,0,2.32,0,4.65.01,6.97-.21,3.34-.41,6.67-.62,10.01-.39,1.35-.78,2.7-1.16,4.05-1.82,16.1-5.42,31.37-15.71,44.71-8.18,10.61-17.4,19.83-28.25,27.55-12.53,8.91-26.63,13.23-41.64,10.36-12.53-2.4-21.3-10.81-26.49-22.83-5.26-12.2-4.91-24.04.06-36.26,3.96-9.73,14.4-17.7,25.02-17.54,6.35.09,12.86-1.24,18.78,2.81,4.23,2.9,7.39,11.6,4.73,15.88-.76,1.22-3,2.15-4.55,2.14-4.01-.02-4.33,2.32-3.97,5.24.55,4.52,6.64,7.85,10.81,6.06,10.2-4.38,16.8-11.76,20.9-22.22,4.57-11.65,7.62-23.55,7-35.92-.37-7.38-2.96-14.68-4.85-21.94-.41-1.58-2.08-2.83-3.68-4.89-4.91,5.76-9.12,11.4-14.06,16.33-8.84,8.84-17.67,17.81-27.39,25.62-5.51,4.43-12.86,7.22-20.3,5.68-3.08-.64-7.29-3.48-8-6.12-1.02-3.81-2.22-8.93,2.58-12.27,13.3-9.25,24.15-20.88,34.23-33.57,9.91-12.49,18.21-25.66,23.86-40.54,1.58-4.17,9.75-6.07,14.48-3.76,15.32,7.5,24.75,19.67,30.88,35.5,3.29,8.49,4.41,17.04,5.72,25.75.33,1.06.65,2.13.98,3.19h-.01Z"/>
        <path class="cls-1" d="m226.02,222.59c-4.11,5.12-6.63,10.67-7.77,17.52-2.62,15.75.17,30.45,5.95,44.94,4.03,10.1,10.74,17.68,20.58,22.37,3.71,1.77,10.62-1.58,11.37-5.54.63-3.33.19-6.19-4.39-5.6-3.16.41-4.15-.88-4.57-4.14-1.47-11.28,5.85-17.75,16.16-16.88,4.75.4,9.75-.37,14.24.86,12.43,3.4,17.95,13.14,20.79,24.85,2.16,8.92.86,17.79-1.22,26.44-3.13,13.04-19.06,24.08-32.42,25.09-21.16,1.6-36.51-9.19-50.45-22.5-8.06-7.69-14.96-16.8-21.26-26.04-3.16-4.63-3.88-10.95-5.61-16.54-1.12-3.62-2.62-7.25-2.97-10.97-1.84-19.61-3.06-39.12,2.33-58.59,3.2-11.58,8.29-22.2,16.11-30.73,6.16-6.72,13.15-14.22,24.03-13.93,6.05.16,6.86,1.56,10.44,8.97,4.69,9.74,9.45,19.74,15.99,28.24,9.44,12.26,20.46,23.32,30.92,34.78,1.8,1.97,4.07,3.6,6.34,5.05,5.7,3.62,7.36,6.78,5.69,12.95-1.31,4.84-5.27,7.59-9.85,7.77-3.92.15-8.45-.69-11.76-2.68-7.12-4.27-14.34-8.84-20.22-14.6-9.88-9.68-18.75-20.4-28.43-31.1h-.02Z"/>
        <path class="cls-1" d="m301.37,57.27c-.41,21.09-.81,42.18-1.24,63.28-.25,12.62-.51,25.24-.84,37.85-.32,12.6-.86,25.19-1.07,37.78-.18,10.91-.04,21.83-.04,32.74-.65.32-1.3.63-1.95.95-5.74-4.01-11.68-7.76-17.18-12.07-9.11-7.12-16.26-15.93-22.74-25.59-10.43-15.56-18.23-32.15-24.48-49.78-4.05-11.43-5.11-23.04-5.4-34.75-.36-14.75,6.53-26.75,18.59-34.75,5.6-3.71,12.96-5.63,19.74-6.36,4.14-.45,8.69,2.9,13.47,4.71-.34-24.85,2.24-49.2,20.58-68.67.87-.93,2.55-1.09,3.13-1.32v51.87c-.2,1.37-.39,2.74-.59,4.12h.02Zm-26.58,122.6c.56-8.46,1.31-15.82,1.48-23.19.37-16.48.46-32.96.61-49.44,0-1.1-.18-3-.73-3.19-4.23-1.41-8.58-3.42-12.89-3.41-4.64,0-5.8,4.8-6.87,8.6-3.21,11.4-.76,22.78,1.51,33.8,2.68,13.02,8.78,24.91,16.89,36.82h0Z"/>
        <path class="cls-1" d="m367.48,86.23c0-9.01-.01-18.01-.02-27.02.19-8.31.41-16.63.52-24.94,0-.34-.98-.7-1.5-1.05-.63-10.5-1.26-21-1.99-33.22,3.13,1.96,6.07,2.89,7.55,4.89,6.22,8.43,11.83,17.34,14.69,27.51,1.23,4.37,1.21,9.11,1.55,13.7.6,8.24,1.05,16.5,1.59,25.36,1.42-.56,2.94-.8,3.99-1.64,4.84-3.84,10.07-4.55,15.8-2.52,7.83,2.78,16.24,4.67,21.57,11.83,8.43,11.31,13.43,23.55,10.28,38.13-1.49,6.88-1.56,14.11-3.4,20.87-2.09,7.68-5.08,15.19-8.35,22.46-3.77,8.38-7.88,16.67-12.56,24.57-8.28,13.98-18.38,26.52-31.68,36.15-4.2,3.04-8.74,5.63-13.64,8.75-.32-1.68-.51-2.28-.53-2.88-.36-12.11-.75-24.22-1.04-36.33-.37-15.76-.62-31.51-.98-47.27-.4-17.08-.88-34.16-1.32-51.24,1.88-2.22,2.49-4.33-.53-6.12h0Zm25.82,93.11c.37.05.75.1,1.12.14,2.23-3.82,4.64-7.55,6.65-11.49,2.29-4.48,4.55-9.03,6.25-13.75,4.99-13.86,5.67-28.29,5.17-42.87-.21-6.02-3.11-10.01-8.89-11.09-6.14-1.15-11.26,3.02-11.18,9.22.28,23.28.59,46.55.89,69.83h-.01Z"/>
        <path class="cls-1" d="m45.55,358.69c7.29-1.43,11.29,3.81,9.69,13.02-1,5.73-4.3,9.89-10.14,11.79-15.89,5.17-30.33-1.18-37.41-16.63-1.95-4.27-3.56-8.7-5.62-12.9-3.74-7.61-1.9-15.28,1.47-21.84,4.29-8.36,11.12-14.98,20.41-18.44,12.65-4.71,25.37-4.65,37.51.8,11.74,5.27,23.42,11.08,31.48,21.87,4.94,6.62,9.58,13.48,14.89,19.78,3.17,3.76,7,7.34,11.26,9.7,3.66,2.03,8.41.29,10.48-3.14,1.46-2.41.97-6.4.38-9.51-.35-1.85-2.58-3.34-4.1-5.16,4.85-4.85,11.22-5.14,16.39-2.99,5.8,2.41,10.83,6.89,10.24,14.86-.5,6.73,1.08,14-4.97,19-3.56,2.94-7.64,5.42-11.82,7.41-13.66,6.5-26.82,1.4-39.39-3.32-6.71-2.52-12.46-7.95-18.22-12.6-7.58-6.12-14.66-12.85-22.11-19.13-4.9-4.13-10.98-4.42-16.94-3.79-5.08.54-8.09,4.57-8.29,9.02-.14,3.12,1.99,6.96,4.27,9.42,2.29,2.47,8.45-.57,10.06-4.47.36-.86.36-1.88.51-2.74h-.03Z"/>
        <path class="cls-1" d="m667.42,346.31c-1.45,17.94-11.95,35.55-31.77,39.93-10.37,2.29-24.07-8.29-23.08-18.68.3-3.11,3.11-6.29,5.48-8.77,1.12-1.17,3.33-1.11,4.78,1.87,3.24,6.63,9.54,8.05,12.74,3.06,1.71-2.67,2.14-7.22,1.13-10.26-.84-2.53-4.36-5.29-7.13-5.86-8.16-1.69-15.19,1.66-21.4,6.89-10.42,8.78-20.42,18.14-31.48,26.03-5.25,3.74-12.49,4.74-18.9,6.75-2.31.72-4.91.48-7.24,1.17-9.58,2.86-18.6-.31-25.5-5.62-11.15-8.57-15.81-27.38.71-37.5,3.2-1.96,12.19-1.36,15.2,1.1,3.44,2.81.03,4.2-1.5,5.7-3.76,3.67-2.6,11.49,2.08,13.15,4.51,1.61,12.49-1.12,15.66-5.33,5.02-6.66,9.84-13.48,15.12-19.92,10.31-12.56,23.36-21.06,38.58-26.96,12.94-5.02,25.46-3.15,36.8,2.22,12.2,5.78,20.7,15.9,19.72,31.03h0Z"/>
        <path class="cls-1" d="m227.03,383.34c-16.16-2.66-31.39-7.83-43.12-19.77-5.99-6.1-11.11-13.12-16.15-20.06-5.08-6.99-9.49-14.47-14.36-21.62-4.26-6.25-12-9.44-19-7.39-1.98.58-4.84,3.39-4.68,4.89.3,2.71,2.45,5.28,4.06,7.77.93,1.44,2.29,2.59,3.46,3.87-1.52,1.1-2.89,2.7-4.59,3.22-11.29,3.46-17.03.97-24.02-9.02-11.42-16.32-5.94-33.69,7.74-43.43,9-6.41,19.03-6.01,28.88-2.61,12.16,4.19,22.38,11.6,29.53,22.28,5.19,7.77,9.14,16.38,13.49,24.69,4.27,8.17,8,16.65,12.63,24.61,3.51,6.03,7.81,11.66,12.2,17.11,4.35,5.39,9.26,10.32,13.93,15.45h0Z"/>
        <path class="cls-1" d="m442.86,383.43c7.84-9.84,16.14-19.07,23-29.27,5.32-7.91,8.9-17,13.17-25.61,5.46-11.01,9.92-22.6,18.67-31.66,10.66-11.04,22.68-19.88,38.68-20.48,13.94-.53,27.69,12.41,28.91,26.44.99,11.34-2.24,21.17-10.88,28.91-5.55,4.98-14.07,6.1-20.21,2.35-1.47-.89-2.21-2.96-3.58-4.91,5.38-1.85,9.11-4.58,7.59-10.2-.49-1.82-2.56-4.28-4.21-4.55-6.26-1.03-12.45-.17-16.65,5.26-3.97,5.14-7.38,10.71-11.08,16.06-7.25,10.49-13.23,22.13-23.58,29.99-6.06,4.6-13.04,8.07-19.9,11.48-4.66,2.31-9.79,3.72-14.78,5.34-1.81.59-3.8.64-5.14.85h0Z"/>
        <path class="cls-1" d="m498.35,272.67c0-10.42.43-20.01-.1-29.54-.82-14.98-3.35-29.67-10.49-43.17-2.12-4.01-1.15-6.2,3.35-6.64,8.28-.8,15.62,1.73,22.9,5.77,13.45,7.48,17.78,20.31,21.22,33.8,2.58,10.09.73,19.99-2.2,29.7-.43,1.43-2.27,3.58-3.33,3.51-11.12-.77-21.62,1.31-31.34,6.56h0Z"/>
        <path class="cls-1" d="m171.09,273.06c-9.05-4.11-17.85-7.34-27.69-6.84-6.76.34-9.43-1.46-9.85-8.04-.62-9.66-1.23-19.59.3-29.05,1.37-8.51,6.05-16.38,12.1-22.92,7.67-8.29,17.01-13.2,28.58-12.96,1.43.03,2.84.74,4.29.84,4.71.35,3.86,2.86,2.38,5.74-4.73,9.22-8.74,18.54-9.13,29.24-.33,8.85-2.17,17.64-2.63,26.49-.24,4.66,1.08,9.4,1.64,14.11.13,1.05.02,2.13.02,3.37v.02Z"/>
        <path class="cls-1" d="m209.81,340.1c4.14,3.46,8.49,6.69,12.37,10.41,11.79,11.28,25.69,17.94,42,16.54,8.25-.71,16.47-4,24.24-7.26,6.87-2.88,7.95-3.2,9.92,4.21,2.25,8.49,3.85,17.13-2.42,24.86-5.76,7.11-13.98,7.71-21.67,6.08-9.66-2.04-19.18-5.34-28.24-9.29-4.99-2.17-9.38-6.34-13.22-10.39-5.15-5.44-9.76-11.45-14.1-17.57-3.74-5.28-6.76-11.06-10.1-16.62.4-.33.8-.65,1.21-.98h.01Z"/>
        <path class="cls-1" d="m374.19,356.58c32.43,20.47,59.41,9.6,83.55-16.27.42.56.85,1.13,1.27,1.69-1.65,3.15-3.08,6.43-4.99,9.42-8.12,12.72-16.4,25.45-29.76,33.37-4.87,2.88-10.39,4.98-15.88,6.42-7.23,1.9-14.68,3.5-22.12,3.97-10.04.63-17.64-7.84-18.03-17.91-.28-7.22,1.06-13.74,5.96-20.69h0Z"/>
        <path class="cls-1" d="m450.74,115c11.9,1.48,21.34,8.13,26.87,17.25,9.92,16.39,7.82,33.85-.99,50.62-4.32-4.42-8.51-8.55-12.46-12.89-.64-.7-.44-2.38-.27-3.56.84-5.72,1.27-11.36-2.12-18.04-1.77,5.35-3.15,9.51-4.51,13.64-4.79-1.31-9.39-2.43-13.87-3.92-.71-.24-1.43-2.24-1.21-3.21,2.4-10.51,5.04-20.97,7.48-31.47.59-2.53.68-5.18,1.09-8.41h-.01Z"/>
        <path class="cls-1" d="m216.64,115.57c3.26,13.95,6.45,27.54,9.68,41.35-3.89,1.44-8.74,3.23-14.7,5.44-1.61-3.99-3.28-8.11-5.42-13.4-1.1,2.72-2.6,4.85-2.73,7.07-.22,3.73.5,7.52.67,11.29.05,1.07-.1,2.46-.74,3.21-3.5,4.07-7.17,7.99-10.8,11.97-8.75-8.88-11.17-33.89-4.8-46.19,5.09-9.83,22.07-21.52,28.84-20.73h0Z"/>
        <path class="cls-1" d="m536.12,215.9c9.46-3.6,22.57,8.3,26.12,15.01,5.78,10.93,7.29,22.68,7.15,34.8,0,.83.05,1.67-.05,2.5-.93,7.87-1.95,8.19-8.97,4.51-4.85-2.54-10.19-4.14-15.13-6.54-1.29-.63-2.85-2.81-2.66-4.03,1.74-11.4.42-22.52-2.54-33.52-1.14-4.23-2.57-8.38-3.92-12.73h0Z"/>
        <path class="cls-1" d="m125.58,264.09c-6.44,3.38-12.54,6.49-18.56,9.76-4.61,2.51-6.28,1.79-7.69-3.01-2.63-8.99-.05-17.51,1.78-26.18,1.81-8.57,6.09-15.59,11.95-21.9,4.99-5.38,11.94-8.14,19.22-7.07-4.86,15.96-9.92,31.9-6.71,48.4h.01Z"/>
        <path class="cls-1" d="m93.09,319.08c-8.8-5.5-15.95-9.65-22.68-14.38-1.97-1.39-3.68-4.32-3.98-6.73-1.92-15.24,5.07-24.82,20.65-29.5-1.49,17.13-1.47,34.02,6.02,50.61h0Z"/>
        <path class="cls-1" d="m575.06,319.71c7.3-16.58,8.26-33.05,6.67-50.44,7.49,1.04,13.01,5.14,17.15,11.09,4.65,6.67,2.09,14.37,2.33,21.65.02.52-1.05,1.15-1.7,1.61-7.26,5.1-14.52,10.18-21.81,15.24-.38.26-.91.31-2.64.86h0Z"/>
        <path class="cls-1" d="m366.48,33.22c.52.35,1.5.71,1.5,1.05-.11,8.31-.32,16.63-.52,24.94-.37-1.96-1.03-3.91-1.05-5.87-.1-6.7.03-13.41.07-20.12h0Z"/>
        <path class="cls-1" d="m486.16,255.29c0-2.32,0-4.65-.01-6.97,0,2.32,0,4.65.01,6.97Z"/>
        <path class="cls-1" d="m367.48,86.23c3.02,1.79,2.41,3.9.53,6.12-.18-2.04-.35-4.08-.53-6.12Z"/>
        <path class="cls-1" d="m484.38,269.35c.39-1.35.78-2.7,1.16-4.05-.39,1.35-.78,2.7-1.16,4.05Z"/>
        <path class="cls-1" d="m301.37,57.27c.2-1.37.39-2.74.59-4.12-.2,1.37-.39,2.74-.59,4.12Z"/>
        <path class="cls-1" d="m485.51,238.31c-.33-1.06-.65-2.13-.98-3.19.33,1.06.65,2.13.98,3.19Z"/>
        <path class="cls-1" d="m393.3,179.34c.37.05.75.09,1.12.14-.37-.05-.75-.09-1.12-.14Z"/>
      </g>
    </g>
  </g>
</svg>