<?xml version="1.0" encoding="UTF-8"?>
<svg id="Layer_2" data-name="Layer 2" xmlns="http://www.w3.org/2000/svg" xmlns:xlink="http://www.w3.org/1999/xlink" viewBox="0 0 601.8 437.37">
  <defs>
    <style>
      .cls-1 {
        fill: #9d7056;
      }

      .cls-2, .cls-3, .cls-4, .cls-5, .cls-6, .cls-7 {
        stroke: #a7a9ac;
        stroke-miterlimit: 10;
      }

      .cls-2, .cls-4, .cls-8, .cls-5, .cls-6, .cls-7 {
        fill: none;
      }

      .cls-2, .cls-4, .cls-6 {
        stroke-width: .25px;
      }

      .cls-2, .cls-5 {
        stroke-dasharray: 3.01 3.01;
      }

      .cls-9 {
        letter-spacing: -.01em;
      }

      .cls-10 {
        fill: #f1f2f2;
      }

      .cls-11, .cls-12, .cls-13, .cls-14, .cls-15 {
        fill: #231f20;
      }

      .cls-3 {
        fill: #939598;
        stroke-width: 2px;
      }

      .cls-4 {
        stroke-dasharray: 2.98 2.98;
      }

      .cls-16 {
        letter-spacing: .02em;
      }

      .cls-17 {
        letter-spacing: 0em;
      }

      .cls-5, .cls-7 {
        stroke-width: .5px;
      }

      .cls-18 {
        letter-spacing: 0em;
      }

      .cls-19 {
        letter-spacing: 0em;
      }

      .cls-12 {
        font-size: 9px;
      }

      .cls-12, .cls-15 {
        font-family: MyriadPro-Regular, 'Myriad Pro';
      }

      .cls-20 {
        letter-spacing: 0em;
      }

      .cls-13 {
        font-family: MyriadPro-Bold, 'Myriad Pro';
        font-size: 12px;
        font-weight: 700;
      }

      .cls-21 {
        fill: #6d6e71;
      }

      .cls-22 {
        letter-spacing: -.02em;
      }

      .cls-14 {
        font-family: MyriadPro-Semibold, 'Myriad Pro';
        font-weight: 600;
      }

      .cls-14, .cls-15 {
        font-size: 21px;
      }

      .cls-23 {
        letter-spacing: -.01em;
      }

      .cls-24 {
        letter-spacing: 0em;
      }

      .cls-25 {
        fill: #fbb040;
      }

      .cls-26 {
        letter-spacing: 0em;
      }

      .cls-27 {
        clip-path: url(#clippath);
      }
    </style>
    <clipPath id="clippath">
      <rect class="cls-8" y="32.65" width="484.32" height="278.16"/>
    </clipPath>
  </defs>
  <g id="Layer_1-2" data-name="Layer 1">
    <rect class="cls-10" x="8.94" width="241.61" height="437.37"/>
    <line class="cls-3" x1="40.55" y1="212.34" x2="601.8" y2="212.34"/>
    <circle class="cls-11" cx="142.55" cy="212.34" r="5.09"/>
    <circle class="cls-11" cx="201.55" cy="212.34" r="5.09"/>
    <text class="cls-12" transform="translate(189.93 203.18)"><tspan x="0" y="0">1976</tspan></text>
    <text class="cls-12" transform="translate(131.77 203.18)"><tspan x="0" y="0">1917</tspan></text>
    <text class="cls-12" transform="translate(27.29 203.18)"><tspan x="0" y="0">1815</tspan></text>
    <text class="cls-12" transform="translate(61.02 230.1)"><tspan x="0" y="0">1843</tspan></text>
    <circle class="cls-11" cx="233.55" cy="212.34" r="5.09"/>
    <text class="cls-12" transform="translate(224.12 203.18)"><tspan x="0" y="0">2011</tspan></text>
    <text class="cls-12" transform="translate(179.4 230.1)"><tspan x="0" y="0">1963</tspan></text>
    <text class="cls-12" transform="translate(141.46 230.1)"><tspan x="0" y="0">1926</tspan></text>
    <circle class="cls-25" cx="250.55" cy="212.34" r="5.09"/>
    <text class="cls-13" transform="translate(253.49 135.22) rotate(-90)"><tspan x="0" y="0">2024</tspan></text>
    <circle class="cls-25" cx="275.55" cy="212.34" r="5.09"/>
    <text class="cls-12" transform="translate(264.65 203.18)"><tspan x="0" y="0">2050</tspan></text>
    <circle class="cls-25" cx="300.55" cy="212.34" r="5.09"/>
    <text class="cls-12" transform="translate(295.46 203.18)"><tspan x="0" y="0">2075</tspan></text>
    <circle class="cls-25" cx="350.55" cy="212.34" r="5.09"/>
    <text class="cls-12" transform="translate(336.74 203.18)"><tspan x="0" y="0">2125</tspan></text>
    <circle class="cls-25" cx="450.55" cy="212.34" r="5.09"/>
    <text class="cls-12" transform="translate(437.89 203.18)"><tspan x="0" y="0">2225</tspan></text>
    <polygon class="cls-21" points="68.55 205.9 61.9 217.43 75.21 217.43 68.55 205.9"/>
    <polygon class="cls-21" points="151.55 205.9 144.9 217.43 158.21 217.43 151.55 205.9"/>
    <polygon class="cls-21" points="188.55 205.9 181.9 217.43 195.21 217.43 188.55 205.9"/>
    <text class="cls-13" transform="translate(262.46 151.17)"><tspan x="0" y="0">+25</tspan></text>
    <text class="cls-13" transform="translate(289.4 151.17)"><tspan x="0" y="0">+50</tspan></text>
    <text class="cls-13" transform="translate(337.12 151.17)"><tspan x="0" y="0">+100</tspan></text>
    <text class="cls-13" transform="translate(432.74 151.17)"><tspan x="0" y="0">+200</tspan></text>
    <text class="cls-13" transform="translate(24.94 151.17)"><tspan x="0" y="0">-210</tspan></text>
    <text class="cls-15" transform="translate(50.56 340.53)"><tspan x="0" y="0">Limi</tspan><tspan class="cls-26" x="37.25" y="0">t</tspan><tspan class="cls-17" x="44.08" y="0">ed </tspan><tspan class="cls-19" x="70.89" y="0">r</tspan><tspan x="77.55" y="0">e</tspan><tspan class="cls-26" x="88.07" y="0">c</tspan><tspan x="97.35" y="0">o</tspan><tspan class="cls-19" x="108.88" y="0">r</tspan><tspan x="115.54" y="0">ds</tspan></text>
    <text class="cls-14" transform="translate(275.56 340.53)"><tspan class="cls-22" x="0" y="0">C</tspan><tspan class="cls-17" x="12.01" y="0">omp</tspan><tspan class="cls-20" x="53.95" y="0">r</tspan><tspan x="61.24" y="0">ehensi</tspan><tspan class="cls-9" x="121.06" y="0">v</tspan><tspan x="131.46" y="0">e </tspan><tspan class="cls-20" x="146.64" y="0">r</tspan><tspan x="153.93" y="0">e</tspan><tspan class="cls-18" x="164.76" y="0">c</tspan><tspan class="cls-17" x="174" y="0">o</tspan><tspan class="cls-18" x="185.85" y="0">r</tspan><tspan x="193.13" y="0">ds</tspan></text>
    <g>
      <circle class="cls-11" cx="37.65" cy="396.05" r="5.09"/>
      <text class="cls-12" transform="translate(49.15 399.27)"><tspan x="0" y="0">major ea</tspan><tspan class="cls-16" x="32.67" y="0">r</tspan><tspan class="cls-24" x="35.83" y="0">thquake</tspan></text>
    </g>
    <g>
      <polygon class="cls-21" points="137.55 390.3 130.9 401.83 144.21 401.83 137.55 390.3"/>
      <text class="cls-12" transform="translate(149.06 399.93)"><tspan x="0" y="0">major </tspan><tspan class="cls-23" x="23.82" y="0">v</tspan><tspan x="28.06" y="0">olcano eruption</tspan></text>
    </g>
    <g class="cls-27">
      <g>
        <g>
          <line class="cls-2" x1="39.65" y1="-35.57" x2="39.65" y2="312.47"/>
          <line class="cls-6" x1="39.65" y1="313.98" x2="39.65" y2="315.48"/>
        </g>
        <g>
          <line class="cls-5" x1="250.55" y1="-35.57" x2="250.55" y2="312.47"/>
          <line class="cls-7" x1="250.55" y1="313.98" x2="250.55" y2="315.48"/>
        </g>
        <g>
          <line class="cls-2" x1="275.55" y1="-35.57" x2="275.55" y2="312.47"/>
          <line class="cls-6" x1="275.55" y1="313.98" x2="275.55" y2="315.48"/>
        </g>
        <g>
          <line class="cls-2" x1="300.55" y1="-35.57" x2="300.55" y2="312.47"/>
          <line class="cls-6" x1="300.55" y1="313.98" x2="300.55" y2="315.48"/>
        </g>
        <g>
          <line class="cls-4" x1="350.55" y1="-29.24" x2="350.55" y2="314.68"/>
          <line class="cls-6" x1="350.55" y1="316.16" x2="350.55" y2="317.66"/>
        </g>
        <g>
          <line class="cls-2" x1="450.55" y1="-29.21" x2="450.55" y2="318.83"/>
          <line class="cls-6" x1="450.55" y1="320.34" x2="450.55" y2="321.84"/>
        </g>
      </g>
    </g>
    <g id="Layer_1-2" data-name="Layer 1-2">
      <g>
        <g>
          <path class="cls-1" d="M256.12,79.93c-1-.55-1.81-.21-2.21.03-.12.07-.27,0-.29-.14-.08-.85-.44-3.12-1.86-4.38-.12-.11-.32-.01-.31.15l.79,14.89c0,.13.14.21.26.16.96-.4,4.44-2.2,4.83-7.46.11-1.56-.23-2.72-1.21-3.26h0ZM255.47,84.18c-.13,1.15-.75,2.15-1.13,2.69-.1.14-.33.08-.34-.1l-.2-4.39c0-.06.02-.12.07-.15,1.43-1.17,1.79.28,1.6,1.96h0Z"/>
          <path class="cls-1" d="M258.48,98.15c-.06-.04-.62.98-1.95,1.5-.63.25-1.24.31-1.72.3-1.28,0-1.92-.61-2.12-.76-.06.07-.57.74-.32,1.51.13.42.42.65.52.73.64.47,1.48.28,1.83.2,2.33-.53,3.85-3.42,3.75-3.49h0Z"/>
          <path class="cls-1" d="M260.72,89.25c.17.59.34,1.35.38,2.27.02.53,0,1.02-.04,1.44-.02.23.2.4.41.32.41-.16,1-.34,1.59-.31.16,0,.31-.11.32-.27.12-1.21.06-3.97-2.02-4.56-.82-.2-1.12.17-1,.37.31.5.36.74.36.74h0Z"/>
          <path class="cls-1" d="M264.3,89.69s-.28-.14-.52-.1-.11.2-.05.34c.06.13.57,1.49.38,2.78-.02.15.06.3.21.35.4.13.77.28,1.03.43.2.11.45-.02.47-.25.08-1.06-.05-2.98-1.52-3.56h0Z"/>
          <path class="cls-1" d="M256.91,101.18s1.39-.7,2.24-2.59c.84-1.89,1.86-4.1,3.43-4.65s2.39.21,2.74.58c.63.67.66,2.56-.74,3.14,0,0-.78.23-1.31-.32.29-.17.68-.44.35-.93s-1.23-.54-1.83.76c-.35.75-1.35,3.52-4.89,4.01h0Z"/>
          <path class="cls-1" d="M266.58,96.41c.39-.37,1.02-.88,1.53-.88.09-.93-.06-1.95-1.45-2.39.09,1.03-.01,2.31-.26,3.15-.03.11.1.2.19.12h0Z"/>
          <path class="cls-1" d="M271.13,96.2c-2.76-1.33-5.01,1.59-5.67,2.69-.1.16-.26.44-.47.66-.11.12-.23.22-.37.28-.1.04-.21.06-.32.06h-.07c-.45-.04-.8-.41-.8-.87,0-.29.14-.55.37-.71-.07-.03-.18-.06-.31-.07,0,0-.42-.02-.8.36-.48.48-.51,1.7.06,2.27.83.84,2.52,1.03,4.29-.65.47-.45.84-.76,1.66-1.3.54-.36.96-.49,1.46-.33.87.29.58,1.3,0,1.36-.43.04-.82-.31-.73-.72-.41.09-.8.67-.38,1.43.01.02.02.04.04.06.13.2.32.37.56.49.32.19.68.3,1.08.3.55,0,1.06-.22,1.43-.57.02-.01.03-.02.04-.04,0,0,0,0,.02-.02.08-.08.16-.18.23-.28,0-.01.02-.02.02-.04.02-.02.03-.04.04-.07.1-.17.18-.36.24-.57.35-1.25-.08-3-1.61-3.73h0Z"/>
          <g>
            <path class="cls-1" d="M257.94,83.69c.04-.3.05-.6.02-.86,0,0,.02.33-.02.86Z"/>
            <path class="cls-1" d="M257.31,86.79c-.7,1.97-2.12,4.2-5.04,5.5-.05,1.2.96,1.17,1.77.85.82-.31,2.6-1.71,3.53-3.14,1.36,2.33.23,5.39-1.47,5.86-.69.19-.97-.16-.93-.5s.47-.55.82-.35c.19-1.04-.72-1.36-1.17-1.36-3.29,0-2.97,3.72-1.71,4.62,1.82,1.31,3.68.39,4.54-.31,1.28-1.04,2.6-2.6,2.6-6.13s-2.15-4.74-2.94-5.03h0Z"/>
            <path class="cls-1" d="M257.94,83.69c-.04.53-.12,1.28-.33,2.12-.02.07.02.14.08.16.19.08.37.16.54.26.07.04.15.02.19-.05.08-.16.17-.37.23-.63.03-.14.23-.15.27-.02.07.25.1.59-.03,1.06-.01.05,0,.1.04.14.27.23.49.48.67.72.06.08.2.06.24-.04,1.19-3.06-.98-4.22-1.67-4.51-.09-.04-.19.03-.19.13,0,.21,0,.43-.03.65Z"/>
          </g>
        </g>
        <g>
          <path class="cls-1" d="M243.35,83.06c.39,5.26,3.87,7.06,4.83,7.46.12.05.25-.04.26-.16l.79-14.89c0-.16-.18-.26-.31-.15-1.42,1.25-1.78,3.52-1.86,4.38-.01.14-.16.21-.29.14-.39-.25-1.2-.58-2.21-.03-.98.54-1.33,1.7-1.21,3.26h0ZM246.81,82.09s.07.09.07.15l-.2,4.39c0,.18-.23.25-.34.1-.39-.53-1-1.54-1.13-2.69-.19-1.68.17-3.13,1.6-1.96h0Z"/>
          <path class="cls-1" d="M242.21,98.03c.06-.04.62.98,1.95,1.5.63.25,1.24.31,1.72.3,1.28,0,1.92-.61,2.12-.76.06.07.57.74.32,1.51-.13.42-.42.65-.52.73-.64.47-1.48.28-1.83.2-2.33-.53-3.85-3.42-3.75-3.49h0Z"/>
          <path class="cls-1" d="M239.97,89.13c-.17.59-.34,1.35-.38,2.27-.02.53,0,1.02.04,1.44.02.23-.2.4-.41.32-.41-.16-1-.34-1.59-.31-.16,0-.31-.11-.32-.27-.12-1.21-.06-3.97,2.02-4.56.82-.2,1.12.17,1,.37-.31.5-.36.74-.36.74h0Z"/>
          <path class="cls-1" d="M236.4,89.56s.28-.14.52-.1.11.2.05.34c-.06.13-.57,1.49-.38,2.78.02.15-.06.3-.21.35-.4.13-.77.28-1.03.43-.2.11-.45-.02-.47-.25-.08-1.06.05-2.98,1.52-3.56h0Z"/>
          <path class="cls-1" d="M243.78,101.05s-1.39-.7-2.24-2.59c-.84-1.89-1.86-4.1-3.43-4.65s-2.39.21-2.74.58c-.63.67-.66,2.56.74,3.14,0,0,.78.23,1.31-.32-.29-.17-.68-.44-.35-.93s1.23-.54,1.83.76c.35.75,1.35,3.52,4.89,4.01h0Z"/>
          <path class="cls-1" d="M234.11,96.29c-.39-.37-1.02-.88-1.53-.88-.09-.93.06-1.95,1.45-2.39-.09,1.03.01,2.31.26,3.15.03.11-.1.2-.19.12h0Z"/>
          <path class="cls-1" d="M229.56,96.08c2.76-1.33,5.01,1.59,5.67,2.69.1.16.26.44.47.66.11.12.23.22.37.28.1.04.21.06.32.06h.07c.45-.04.8-.41.8-.87,0-.29-.14-.55-.37-.71.07-.03.18-.06.31-.07,0,0,.42-.02.8.36.48.48.51,1.7-.06,2.27-.83.84-2.52,1.03-4.29-.65-.47-.45-.84-.76-1.66-1.3-.54-.36-.96-.49-1.46-.33-.87.29-.58,1.3,0,1.36.43.04.82-.31.73-.72.41.09.8.67.38,1.43-.01.02-.02.04-.04.06-.13.2-.32.37-.56.49-.32.19-.68.3-1.08.3-.55,0-1.06-.22-1.43-.57-.02-.01-.03-.02-.04-.04,0,0,0,0-.02-.02-.08-.08-.16-.18-.23-.28,0-.01-.02-.02-.02-.04-.02-.02-.03-.04-.04-.07-.1-.17-.18-.36-.24-.57-.35-1.25.08-3,1.61-3.73h0Z"/>
          <g>
            <path class="cls-1" d="M242.75,83.57c-.04-.3-.05-.6-.02-.86,0,0-.02.33.02.86Z"/>
            <path class="cls-1" d="M243.38,86.67c.7,1.97,2.12,4.2,5.04,5.5.05,1.2-.96,1.17-1.77.85-.82-.31-2.6-1.71-3.53-3.14-1.36,2.33-.23,5.39,1.47,5.86.69.19.97-.16.93-.5s-.47-.55-.82-.35c-.19-1.04.72-1.36,1.17-1.36,3.29,0,2.97,3.72,1.71,4.62-1.82,1.31-3.68.39-4.54-.31-1.28-1.04-2.6-2.6-2.6-6.13s2.15-4.74,2.94-5.03h0Z"/>
            <path class="cls-1" d="M242.75,83.57c.04.53.12,1.28.33,2.12.02.07-.02.14-.08.16-.19.08-.37.16-.54.26-.07.04-.15.02-.19-.05-.08-.16-.17-.37-.23-.63-.03-.14-.23-.15-.27-.02-.07.25-.1.59.03,1.06.01.05,0,.1-.04.14-.27.23-.49.48-.67.72-.06.08-.2.06-.24-.04-1.19-3.06.98-4.22,1.67-4.51.09-.04.19.03.19.13,0,.21,0,.43.03.65Z"/>
          </g>
        </g>
      </g>
    </g>
    <circle class="cls-11" cx="40.55" cy="212.34" r="5.09"/>
  </g>
</svg>