<?xml version="1.0" encoding="utf-8"?>
<!-- Generator: Adobe Illustrator 27.7.0, SVG Export Plug-In . SVG Version: 6.00 Build 0)  -->
<svg version="1.1" id="Layer_2_00000068668082986275241170000010361897210661132967_"
	 xmlns="http://www.w3.org/2000/svg" xmlns:xlink="http://www.w3.org/1999/xlink" x="0px" y="0px" viewBox="0 0 53.5 65.8"
	 style="enable-background:new 0 0 53.5 65.8;" xml:space="preserve">
<style type="text/css">
	.st0{opacity:0.15;}
	.st1{fill:#9C6F55;}
</style>
<g id="Layer_1-2" class="st0">
	<g>
		<path class="st1" d="M42.8,19.5c1,13.1,9.6,17.6,12,18.6c0.3,0.1,0.6-0.1,0.6-0.4l2-37.1c0-0.4-0.5-0.6-0.8-0.4
			C53.1,3.4,52.2,9,52,11.1c0,0.3-0.4,0.5-0.7,0.4c-1-0.6-3-1.4-5.5-0.1C43.3,12.7,42.5,15.6,42.8,19.5z M51.4,17.1
			c0.1,0.1,0.2,0.2,0.2,0.4L51,28.4c0,0.4-0.6,0.6-0.8,0.2c-1-1.3-2.5-3.8-2.8-6.7C46.9,17.8,47.8,14.2,51.4,17.1L51.4,17.1z"/>
		<path class="st1" d="M39.9,56.8c0.1-0.1,1.5,2.4,4.9,3.7c1.6,0.6,3.1,0.8,4.3,0.8c3.2,0,4.8-1.5,5.3-1.9c0.1,0.2,1.4,1.8,0.8,3.8
			c-0.3,1-1,1.6-1.3,1.8c-1.6,1.2-3.7,0.7-4.6,0.5C43.5,64.1,39.7,56.9,39.9,56.8L39.9,56.8z"/>
		<path class="st1" d="M34.3,34.6c-0.4,1.5-0.8,3.4-0.9,5.7c-0.1,1.3,0,2.5,0.1,3.6c0.1,0.6-0.5,1-1,0.8c-1-0.4-2.5-0.8-4-0.8
			c-0.4,0-0.8-0.3-0.8-0.7c-0.3-3-0.1-9.9,5-11.3c2-0.5,2.8,0.4,2.5,0.9C34.5,34,34.3,34.6,34.3,34.6L34.3,34.6z"/>
		<path class="st1" d="M25.4,35.7c0,0,0.7-0.4,1.3-0.2s0.3,0.5,0.1,0.8c-0.1,0.3-1.4,3.7-1,6.9c0.1,0.4-0.2,0.8-0.5,0.9
			c-1,0.3-1.9,0.7-2.6,1.1c-0.5,0.3-1.1,0-1.2-0.6C21.4,41.9,21.8,37.1,25.4,35.7L25.4,35.7z"/>
		<path class="st1" d="M43.8,64.3c0,0-3.5-1.7-5.6-6.4c-2.1-4.7-4.6-10.2-8.5-11.6c-3.9-1.4-6,0.5-6.8,1.5c-1.6,1.7-1.6,6.4,1.8,7.8
			c0,0,2,0.6,3.3-0.8c-0.7-0.4-1.7-1.1-0.9-2.3c0.8-1.2,3.1-1.3,4.6,1.9C32.5,56.2,35,63.1,43.8,64.3L43.8,64.3z"/>
		<path class="st1" d="M19.8,52.4c-1-0.9-2.5-2.2-3.8-2.2c-0.2-2.3,0.1-4.8,3.6-5.9c-0.2,2.6,0,5.7,0.6,7.8
			C20.3,52.4,20,52.6,19.8,52.4L19.8,52.4z"/>
		<path class="st1" d="M8.4,51.9c6.9-3.3,12.5,4,14.1,6.7c0.2,0.4,0.6,1.1,1.2,1.7c0.3,0.3,0.6,0.5,0.9,0.7c0.2,0.1,0.5,0.2,0.8,0.2
			c0.1,0,0.1,0,0.2,0c1.1-0.1,2-1,2-2.2c0-0.7-0.4-1.4-0.9-1.8c0.2-0.1,0.4-0.2,0.8-0.2c0,0,1,0,2,0.9c1.2,1.2,1.3,4.2-0.1,5.7
			c-2.1,2.1-6.3,2.6-10.7-1.6c-1.2-1.1-2.1-1.9-4.1-3.2c-1.3-0.9-2.4-1.2-3.6-0.8c-2.2,0.7-1.4,3.2,0,3.4c1.1,0.1,2-0.8,1.8-1.8
			c1,0.2,2,1.7,0.9,3.5c0,0-0.1,0.1-0.1,0.2c-0.3,0.5-0.8,0.9-1.4,1.2c-0.8,0.5-1.7,0.8-2.7,0.8c-1.4,0-2.6-0.5-3.6-1.4
			c0,0-0.1-0.1-0.1-0.1c0,0,0,0,0,0c-0.2-0.2-0.4-0.5-0.6-0.7c0,0,0-0.1-0.1-0.1c0,0-0.1-0.1-0.1-0.2c-0.3-0.4-0.5-0.9-0.6-1.4
			C3.5,58.1,4.6,53.8,8.4,51.9L8.4,51.9z"/>
		<g>
			<path class="st1" d="M41.2,20.8c-0.1-0.8-0.1-1.5,0-2.1C41.2,18.6,41.2,19.4,41.2,20.8z"/>
			<path class="st1" d="M42.8,28.5c1.7,4.9,5.3,10.4,12.5,13.7c0.1,3-2.4,2.9-4.4,2.1c-2-0.8-6.5-4.2-8.8-7.8
				c-3.4,5.8-0.6,13.4,3.7,14.6c1.7,0.5,2.4-0.4,2.3-1.2s-1.2-1.4-2-0.9c-0.5-2.6,1.8-3.4,2.9-3.4c8.2,0,7.4,9.2,4.2,11.5
				c-4.5,3.2-9.2,1-11.3-0.8c-3.2-2.6-6.5-6.5-6.5-15.2C35.5,32,40.9,29.2,42.8,28.5L42.8,28.5z"/>
			<path class="st1" d="M41.2,20.8c0.1,1.3,0.3,3.2,0.8,5.3c0,0.2,0,0.3-0.2,0.4c-0.5,0.2-0.9,0.4-1.3,0.6c-0.2,0.1-0.4,0-0.5-0.1
				c-0.2-0.4-0.4-0.9-0.6-1.6c-0.1-0.4-0.6-0.4-0.7,0c-0.2,0.6-0.2,1.5,0.1,2.6c0,0.1,0,0.3-0.1,0.4c-0.7,0.6-1.2,1.2-1.7,1.8
				c-0.2,0.2-0.5,0.2-0.6-0.1c-3-7.6,2.4-10.5,4.2-11.2c0.2-0.1,0.5,0.1,0.5,0.3C41.2,19.6,41.2,20.2,41.2,20.8z"/>
		</g>
	</g>
</g>
</svg>
