<?xml version="1.0" encoding="UTF-8"?>
<svg id="Layer_4" data-name="Layer 4" xmlns="http://www.w3.org/2000/svg" viewBox="0 0 180.55 233.39">
  <defs>
    <style>
      .cls-1 {
        fill: #2e333d;
      }
    </style>
  </defs>
  <path class="cls-1" d="m164.17,201.62v23.79c0,.96-.77,1.73-1.73,1.73H6.57c-.96,0-1.73-.77-1.73-1.73V6.18c0-1.78,2.36-2.4,3.24-.85l25.1,44.47c.4.71.25,1.59-.35,2.14l-3.49,3.14c-.36.33-.57.8-.57,1.29v13.83c0,1.61,2.02,2.35,3.05,1.11l7.12-8.47c.33-.39.81-.62,1.32-.62h27.9c.52,0,1,.23,1.33.63l11.3,13.66c.26.31.4.7.4,1.1v17.1c0,.39-.13.77-.37,1.07l-13.56,17.2c-.21.26-.33.58-.36.91l-.89,9.6c-.05.53.15,1.05.53,1.42l5.9,5.57c1.06,1,2.81.32,2.91-1.13l.71-9.95c.03-.43.22-.83.53-1.13l9.23-8.79c.57-.55.7-1.41.31-2.1l-1.14-2.02c-.31-.54-.88-.88-1.51-.88h-4.33l9.49-8.07c.43-.37,1.01-.5,1.56-.35l8.15,2.14c.42.11.78.37,1.01.74l9.12,14.16c.12.19.21.41.25.64l2.46,14.02c.02.1.03.2.03.3v11.05c0,.33-.1.66-.27.94l-2.77,4.31c-.7,1.09,0,2.53,1.29,2.66l7.3.7c.37.03.71.19.98.43l8.34,7.41c.26.23.44.54.53.87l2.34,9.36c.05.2.06.41.04.62l-.97,8.24c0,.07-.01.13-.01.2v2.95l8.16-.45c.62-.03,1.17-.4,1.45-.95l1.35-2.71c.57-1.15-.26-2.5-1.55-2.5h0c-1.15,0-1.98-1.1-1.66-2.2l1.12-3.92c.18-.62.68-1.08,1.31-1.22l7.63-1.61c.63-.13,1.27.09,1.68.59l4.06,4.87c.24.29.38.64.4,1.01l.45,8.19c.01.27-.03.53-.14.78l-2.89,6.75-1.53,3.56,5.63,1.3c.61.14,1.25-.06,1.67-.52l3.75-4.12c.41-.45.55-1.09.37-1.67l-1.33-4.32c-.24-.79.11-1.64.83-2.03l4.72-2.54c.41-.22.89-.27,1.34-.13l8.15,2.57c.52.16.93.56,1.11,1.07l2.67,7.56c.07.18.1.38.1.58v5.88c0,.59-.3,1.14-.8,1.46l-11.13,7.12c-.5.32-.8.87-.8,1.46Z"/>
</svg>